<svg width="266" height="330" viewBox="0 0 266 330" fill="none" xmlns="http://www.w3.org/2000/svg">
<path d="M23.443 23.4291L24.0472 15.0961L8.94219 0L8.27757 8.33303L0 8.99725L15.1051 24.0933L23.443 23.4291ZM22.6576 31.6414L18.3073 27.2937L26.6453 26.6295L27.3099 18.2964L31.6602 22.6441L30.9956 30.9771L22.6576 31.6414ZM49.9675 49.9378L50.6321 41.6048L35.5271 26.5087L34.8625 34.8417L26.5245 35.5059L41.6295 50.602L49.9675 49.9378ZM49.3029 58.2708C48.8195 57.7877 48.457 57.4858 48.0945 57.1235L47.0069 56.0366L44.8318 53.8628L53.1698 53.1382L53.8344 44.8051L56.0095 46.979L57.0971 48.0659C57.4596 48.4282 57.8826 48.8509 58.1242 49.032C57.6409 51.5078 57.5805 54.2251 58.0034 56.9424C55.3449 57.8481 52.3843 58.2708 49.3029 58.2708ZM84.0445 61.1693L78.6067 54.8289H73.2897C72.8668 54.8289 72.323 54.8289 72.0813 54.8289C71.7188 54.8289 71.4167 54.8289 71.0542 54.7685C70.3895 54.7081 69.7249 54.6478 69.0603 54.527C66.4018 54.1043 63.8037 53.0778 61.5078 51.6285C61.5682 54.1647 62.0516 56.8216 63.0183 59.4181C60.6015 60.7466 57.7617 61.7731 54.7407 62.3769C58.4868 64.7319 62.6558 66.3019 67.006 67.0265C68.0936 67.2077 69.1811 67.3285 70.2687 67.3888C71.3563 67.4492 72.5647 67.4492 73.3501 67.4492H78.6671L84.0445 61.1693ZM89.3011 67.5096H83.1382L88.576 61.1693L83.1382 54.8289H89.3011L94.7389 61.1693L89.3011 67.5096ZM121.565 61.1693L116.128 54.8289H94.7993L100.237 61.1693L94.7993 67.5096H116.128L121.565 61.1693ZM126.097 67.6304C125.312 67.57 124.526 67.57 123.741 67.5096H120.659L123.378 64.3092C123.861 63.7658 124.224 63.2827 124.707 62.7392C125.13 62.2562 125.614 61.7127 126.097 61.2296C125.674 60.6862 125.251 60.1427 124.768 59.5993C124.345 59.0558 123.801 58.5123 123.378 57.9689L120.659 54.7685H123.741C124.949 54.8289 126.278 54.8289 127.547 55.0101C128.514 56.2177 129.42 57.4254 130.206 58.6331C130.991 59.9012 131.656 61.1693 132.199 62.4373C130.991 63.1619 129.903 64.0073 128.876 64.8527C127.849 65.7585 126.943 66.7246 126.097 67.6304ZM149.963 80.9753C151.534 78.6807 152.803 75.9634 153.649 73.0046C151.655 69.0796 148.875 65.5773 145.552 62.7392C142.229 59.9012 138.302 57.7274 134.133 56.3385C134.495 57.0027 134.858 57.7274 135.16 58.3916C135.462 59.0558 135.764 59.72 136.006 60.4446C136.248 61.1693 136.489 61.8335 136.671 62.4977C136.852 63.1619 137.033 63.8262 137.154 64.5508C136.489 64.7319 135.885 65.0338 135.22 65.3358C134.616 65.6377 134.012 65.9396 133.408 66.2415C132.864 66.5435 132.26 66.9058 131.716 67.2681C131.172 67.6304 130.689 67.9927 130.206 68.4154C135.402 70.0457 139.873 73.9103 142.35 78.7411C144.827 79.1034 147.425 79.828 149.963 80.9753ZM144.525 86.6514C144.525 86.4703 144.525 86.2287 144.465 86.0476L144.344 85.4437L144.163 84.2964C144.102 83.9341 143.981 83.5114 143.861 83.1491C143.74 82.7868 143.679 82.3641 143.558 82.0018C144.767 82.3641 145.975 82.7868 147.184 83.3907C148.332 83.9945 149.54 84.6587 150.688 85.4437C151.594 84.4172 152.501 83.3303 153.407 82.1226C154.192 80.9149 154.978 79.6468 155.642 78.1976C155.824 78.8015 155.945 79.4053 156.126 80.0091C156.247 80.613 156.488 81.2168 156.549 81.8811L156.851 83.753L156.972 84.7191C157.032 85.021 157.032 85.323 157.032 85.6853C156.549 86.2891 156.005 86.8326 155.522 87.376L154.736 88.161C154.494 88.4026 154.192 88.7045 153.89 88.946C153.347 89.4291 152.803 89.9122 152.259 90.3349C151.715 90.7575 151.171 91.1802 150.567 91.6029C150.144 91.1198 149.6 90.5764 149.117 90.1537C148.634 89.6706 148.09 89.2479 147.607 88.8253C147.365 88.6441 147.123 88.4026 146.821 88.2214C146.519 88.0403 146.277 87.8591 145.975 87.6779C145.613 87.3156 145.069 86.9533 144.525 86.6514ZM135.885 112.617C137.214 113.22 138.544 113.583 139.933 113.945C141.383 114.368 142.833 114.549 144.404 114.67C147.848 111.952 150.809 108.631 152.924 104.767C155.099 100.962 156.488 96.6752 157.032 92.3275C156.428 92.8106 155.824 93.2937 155.22 93.7164C154.615 94.1391 154.011 94.5618 153.347 94.9241C152.682 95.2864 152.078 95.6487 151.413 95.9506L150.446 96.4337C150.144 96.5544 149.782 96.7356 149.48 96.8564C149.298 96.5544 149.117 96.2525 148.936 95.9506C148.755 95.6487 148.513 95.3467 148.332 95.1052C147.909 94.5618 147.546 94.0183 147.123 93.5352C146.7 93.0521 146.277 92.5691 145.794 92.086C145.311 91.6029 144.888 91.1802 144.404 90.7575C143.8 96.1921 140.9 101.264 136.55 104.586C136.61 105.793 136.671 107.182 136.55 108.45C136.429 109.899 136.248 111.288 135.885 112.617ZM129.299 108.329C130.085 108.209 130.81 107.846 131.535 107.605C131.897 107.484 132.26 107.303 132.622 107.122L133.71 106.639C133.589 107.846 133.347 109.175 133.045 110.443C132.683 111.711 132.26 112.979 131.716 114.307C132.864 115.032 134.133 115.696 135.523 116.3C136.852 116.844 138.241 117.327 139.812 117.81L138.121 118.655C137.516 118.897 136.973 119.199 136.368 119.44C135.16 119.863 134.012 120.346 132.743 120.648C131.354 119.923 130.145 119.138 128.937 118.232C127.728 117.327 126.701 116.481 125.734 115.394C126.58 114.307 127.305 113.1 127.91 111.952C128.393 110.805 128.876 109.537 129.299 108.329ZM98.7871 115.455L104.225 121.795H114.919H120.236C122.049 121.795 123.62 121.855 125.976 121.674C125.372 121.191 124.828 120.648 124.284 120.165C123.741 119.682 123.318 119.138 122.834 118.595L120.115 115.394L122.834 112.194C123.257 111.651 123.801 111.167 124.103 110.564C124.466 110.02 124.828 109.477 125.13 108.933C123.922 109.054 121.928 108.994 120.236 108.994H114.919H104.225L98.7871 115.455ZM93.5305 109.114H99.6934L94.2555 115.455L99.6934 121.795H93.5305L88.0927 115.455L93.5305 109.114ZM61.2661 115.455L66.7039 121.795H88.0323L82.5944 115.455L88.0323 109.114H66.7039L61.2661 115.455ZM56.0095 109.114H62.1724L56.7346 115.455L62.1724 121.795H56.0095L50.5717 115.455L56.0095 109.114ZM26.6453 125.116C27.3704 125.116 28.035 125.177 28.6996 125.177C29.3642 125.237 30.0288 125.297 30.6935 125.418C31.3581 125.539 32.0227 125.66 32.6269 125.78C33.2311 125.901 33.8353 126.082 34.4999 126.324C36.6146 124.633 39.0919 123.365 41.7504 122.64C43.0796 122.278 44.4089 122.037 45.7381 121.916L46.7652 121.855L47.2486 121.795H47.3694H47.5507H47.9132H50.5717L47.8528 118.595C47.3694 118.051 47.0069 117.568 46.5236 117.025C46.1006 116.542 45.6173 115.998 45.1339 115.515C45.5568 114.972 45.9798 114.428 46.4631 113.885C46.9465 113.341 47.4299 112.798 47.8528 112.254L50.5717 109.054H47.9132H47.5507C47.4299 109.054 47.309 109.054 47.1882 109.054L46.3423 109.114L44.711 109.175C42.5358 109.356 40.3607 109.718 38.246 110.322C34.0166 111.53 30.0288 113.583 26.5849 116.3C26.4641 117.025 26.4036 117.81 26.3432 118.595C26.2828 119.38 26.2828 120.104 26.2828 120.829C26.2828 121.554 26.3432 122.278 26.4036 123.003C26.4641 123.727 26.5245 124.392 26.6453 125.116ZM18.0656 126.324L19.0324 124.694L19.5157 123.909L20.0595 123.124L21.2075 121.614C21.57 121.07 22.0534 120.648 22.4763 120.165C22.4763 120.95 22.5367 121.674 22.5972 122.399C22.6576 123.184 22.7784 123.909 22.8993 124.633C23.0201 125.358 23.1409 126.022 23.3222 126.747C23.5035 127.471 23.7451 128.135 23.9264 128.8C24.591 128.679 25.3161 128.558 25.9807 128.498C26.6453 128.437 27.3704 128.437 28.035 128.377C28.6996 128.377 29.3642 128.377 29.9684 128.437C30.633 128.498 31.2977 128.558 31.9019 128.679C31.6602 128.981 31.3581 129.222 31.1164 129.585L30.3914 130.551L30.0288 131.034L29.7267 131.517L29.1225 132.543C27.8537 132.664 26.6453 132.845 25.2556 133.147C23.9868 133.449 22.718 133.932 21.3888 134.415C20.7241 133.268 19.9991 131.94 19.4553 130.611C18.9719 129.283 18.4282 127.833 18.0656 126.324ZM26.2828 159.656C26.4036 158.931 26.5849 158.267 26.7662 157.603C26.9474 156.939 27.0683 156.335 27.3704 155.671C27.612 155.006 27.8537 154.403 28.0954 153.859C28.3371 153.255 28.6392 152.712 28.9413 152.168C27.6725 149.753 26.887 147.096 26.7057 144.379C26.4641 141.661 26.7662 138.884 27.5516 136.287C26.3432 136.65 25.1348 137.072 23.9264 137.676C22.7784 138.28 21.57 138.944 20.422 139.729C19.5157 138.703 18.6094 137.616 17.7031 136.408C16.9177 135.2 16.1322 133.872 15.4676 132.483C14.1383 136.65 13.655 141.118 14.0779 145.466C14.4404 149.813 15.7093 154.161 17.7031 158.026C18.4282 158.267 19.1532 158.509 19.8783 158.69C20.6033 158.871 21.3283 159.052 22.0534 159.173C22.718 159.354 23.5035 159.414 24.2285 159.475C24.8931 159.596 25.5578 159.656 26.2828 159.656ZM25.8599 168.291C23.9264 166.6 22.1138 164.849 20.6637 162.796C21.4492 162.917 22.1742 163.038 22.8993 163.098C23.6847 163.158 24.4098 163.219 25.1348 163.219C26.5849 163.279 28.035 163.158 29.4246 162.977C29.4246 161.588 29.5455 160.26 29.7872 158.931C29.908 158.267 30.0288 157.663 30.2101 156.999C30.3914 156.395 30.5726 155.731 30.8143 155.127C31.7206 156.395 32.8686 157.482 34.077 158.569C33.9562 159.837 33.8957 161.105 33.9562 162.434C34.0166 163.702 34.1978 165.091 34.4999 166.479C33.2311 166.962 31.8415 167.325 30.3914 167.687C28.9413 167.989 27.4308 168.231 25.8599 168.291ZM60.7223 169.74L55.2845 163.4H49.9675H47.309C46.6444 163.339 45.9194 163.339 45.2547 163.279C42.5358 162.977 39.8773 162.192 37.521 160.864C37.6418 162.071 37.8835 163.4 38.1856 164.668C38.5481 165.936 38.971 167.204 39.5148 168.532C38.3668 169.257 37.098 169.921 35.7083 170.525C34.3791 171.069 32.929 171.552 31.4185 172.035C35.2854 174.148 39.5752 175.416 43.9255 175.899C45.0131 175.96 46.1006 176.02 47.1882 176.081H49.9071H55.2241L60.7223 169.74ZM65.9789 176.141H59.816L65.2538 169.801L59.816 163.46H65.9789L71.4167 169.801L65.9789 176.141ZM98.2433 169.801L92.8055 163.46H71.4771L76.9149 169.801L71.4771 176.141H92.8055L98.2433 169.801ZM103.5 176.141H97.337L102.775 169.801L97.337 163.46H103.5L108.938 169.801L103.5 176.141ZM135.764 169.801L130.326 163.46H108.998L114.436 169.801L108.998 176.141H130.326L135.764 169.801ZM141.021 176.141H134.858L140.296 169.801L134.858 163.46H141.021L146.459 169.801L141.021 176.141ZM173.285 169.801L167.847 163.46H146.519L151.957 169.801L146.519 176.141H167.847L173.285 169.801ZM178.602 176.141H172.439L177.877 169.801L172.439 163.46H178.602L184.04 169.801L178.602 176.141ZM210.806 169.801L205.368 163.46H184.04L189.478 169.801L184.04 176.141H205.368L210.806 169.801ZM216.123 176.141H209.96L215.398 169.801L209.96 163.46H216.123L221.561 169.801L216.123 176.141ZM247.481 174.269C247.3 172.941 246.998 171.491 246.635 170.102C246.454 169.438 246.212 168.714 245.91 167.989C245.669 167.264 245.366 166.54 245.064 165.876L243.493 165.332C242.95 165.151 242.466 164.97 241.923 164.849L240.352 164.426C239.808 164.306 239.264 164.124 238.72 164.064L237.089 163.822C236.545 163.762 236.001 163.641 235.458 163.641L233.826 163.581L232.98 163.521C232.739 163.521 232.437 163.521 232.195 163.521H221.501L226.938 169.861L221.501 176.201H232.195C232.437 176.201 232.618 176.201 232.739 176.201H233.222L234.249 176.262C234.612 176.262 234.914 176.382 235.276 176.382L236.303 176.503C236.666 176.503 236.968 176.624 237.27 176.745L238.237 176.986C238.599 177.047 238.902 177.167 239.204 177.288L240.17 177.651C240.714 177.228 241.198 176.986 241.802 176.624C242.345 176.322 242.95 176.02 243.554 175.718C244.823 175.175 246.092 174.692 247.481 174.269ZM247.058 182.119C245.91 181.032 244.702 180.005 243.312 179.22C243.856 178.979 244.521 178.677 245.125 178.496C245.729 178.315 246.333 178.073 246.998 177.892C248.327 177.53 249.596 177.288 250.986 177.107C251.046 175.718 251.046 174.269 250.865 172.82C250.804 172.095 250.683 171.371 250.563 170.586C250.442 169.801 250.261 169.136 250.019 168.351C252.194 169.619 254.188 171.31 256 173.001C256.061 174.571 255.94 176.081 255.819 177.469C255.638 178.979 255.336 180.368 254.973 181.696C253.584 181.575 252.194 181.515 250.925 181.515C249.596 181.757 248.327 181.877 247.058 182.119ZM257.511 207.42C258.78 206.997 260.169 206.454 261.499 205.79C262.768 205.125 264.097 204.34 265.366 203.435C266.211 199.147 266.211 194.679 265.366 190.392C264.52 186.104 262.768 181.938 260.351 178.315C260.049 179.885 259.747 181.334 259.263 182.723C258.78 184.112 258.236 185.44 257.632 186.708C256.303 186.285 254.913 185.984 253.644 185.742C252.315 185.561 250.986 185.44 249.777 185.44C251.288 187.674 252.375 190.271 252.919 192.928C253.463 195.585 253.463 198.423 252.919 201.08C253.825 201.985 254.611 202.951 255.457 204.038C256.182 205.005 256.846 206.152 257.511 207.42ZM249.777 208.507L250.381 207.48C250.563 207.118 250.804 206.816 250.986 206.454C251.288 205.729 251.711 205.065 251.952 204.28C252.738 205.306 253.342 206.393 253.946 207.601C254.611 208.809 255.034 210.016 255.457 211.405C256.786 211.164 258.296 210.922 259.626 210.439C261.015 210.016 262.465 209.473 263.795 208.809C263.372 210.016 262.768 211.164 262.224 212.311C261.982 212.915 261.62 213.398 261.317 213.941L260.351 215.572C258.84 215.874 257.33 216.115 255.88 216.236C254.369 216.296 252.979 216.296 251.59 216.236C251.469 214.847 251.227 213.458 250.986 212.19C250.623 210.862 250.2 209.654 249.777 208.507ZM226.878 224.086L232.316 230.426C232.437 230.426 232.557 230.426 232.678 230.426H233.101L233.947 230.366L235.578 230.306C236.666 230.185 237.754 230.004 238.841 229.823C239.929 229.641 240.956 229.279 242.043 229.037C242.587 228.917 243.071 228.675 243.614 228.494L245.185 227.951C249.233 226.32 252.979 223.844 256.121 220.765C254.55 220.765 253.04 220.704 251.59 220.523C250.865 220.403 250.14 220.282 249.415 220.161C248.69 220.04 248.085 219.859 247.36 219.678C247.481 219.014 247.481 218.289 247.542 217.625C247.602 216.961 247.602 216.296 247.542 215.632C247.481 214.304 247.3 212.975 247.119 211.768C245.185 213.7 242.829 215.21 240.352 216.236L239.385 216.598C239.083 216.719 238.781 216.84 238.418 216.9C237.754 217.021 237.089 217.263 236.424 217.383C235.76 217.444 235.095 217.625 234.43 217.685L232.376 217.806L226.878 224.086ZM221.561 217.746H227.724L222.286 224.086L227.724 230.426H221.561L216.123 224.086L221.561 217.746ZM189.297 224.086L194.734 230.426H216.063L210.625 224.086L216.063 217.746H194.734L189.297 224.086ZM184.04 217.746H190.203L184.765 224.086L190.203 230.426H184.04L178.602 224.086L184.04 217.746ZM151.836 224.569C152.924 225.475 153.951 226.381 154.797 227.347C155.22 227.83 155.642 228.373 156.065 228.856C156.247 229.098 156.428 229.339 156.67 229.641C156.851 229.883 157.032 230.124 157.274 230.426H178.602L173.164 224.086L178.602 217.746H157.274C157.093 217.987 156.79 218.289 156.488 218.591L155.703 219.436C155.22 219.98 154.736 220.523 154.253 221.127C153.347 222.214 152.501 223.422 151.836 224.569ZM144.404 220.221L146.217 219.557L147.123 219.255L148.03 219.014L149.903 218.531C150.205 218.47 150.507 218.41 150.809 218.349L151.776 218.229C151.292 218.833 150.869 219.436 150.446 220.04C150.023 220.704 149.661 221.308 149.298 221.973C148.936 222.637 148.634 223.241 148.332 223.905C148.03 224.569 147.788 225.233 147.546 225.898C148.15 226.26 148.755 226.562 149.298 226.924C149.842 227.286 150.446 227.709 150.93 228.132C151.473 228.554 151.957 228.977 152.44 229.4C152.924 229.822 153.347 230.306 153.769 230.789L153.165 230.849C152.984 230.849 152.803 230.909 152.561 230.97L151.413 231.272L150.869 231.392L150.325 231.574L149.238 231.996C148.694 231.574 148.211 231.332 147.607 230.97C147.063 230.668 146.459 230.366 145.854 230.064C144.646 229.521 143.377 229.098 142.048 228.675C142.229 227.347 142.531 225.898 142.894 224.509C143.075 223.844 143.317 223.12 143.619 222.395C143.8 221.61 144.042 220.886 144.404 220.221ZM129.843 251.319C130.931 250.414 132.079 249.629 133.166 248.904C134.314 248.24 135.523 247.636 136.61 247.153C137.154 244.496 138.181 241.96 139.752 239.665C141.262 237.371 143.256 235.438 145.492 233.929C144.344 233.446 143.135 233.083 141.806 232.721C140.537 232.419 139.208 232.238 137.758 232.117C137.698 230.728 137.698 229.339 137.758 227.83C137.879 226.381 138.121 224.871 138.423 223.361C134.798 225.777 131.595 228.917 129.178 232.6C126.701 236.223 125.009 240.39 124.164 244.677C125.009 246.005 125.916 247.213 126.822 248.3C127.789 249.387 128.816 250.414 129.843 251.319ZM124.103 257.78L123.801 255.908C123.741 255.305 123.62 254.64 123.559 254.037L123.439 252.165C123.439 251.863 123.378 251.561 123.378 251.199L123.439 250.232C124.405 251.38 125.553 252.406 126.701 253.372C127.789 254.339 128.997 255.124 130.206 255.848C131.112 254.761 132.018 253.795 133.045 252.95C134.072 252.104 135.039 251.319 136.187 250.655L136.127 251.259C136.127 251.44 136.127 251.682 136.187 251.863L136.248 253.07C136.248 253.493 136.308 253.855 136.368 254.218L136.55 255.365C135.643 256.271 134.858 257.237 134.012 258.324C133.227 259.411 132.562 260.558 131.897 261.826C130.629 261.403 129.239 260.86 127.91 260.196C126.701 259.471 125.372 258.686 124.103 257.78ZM151.957 277.888C151.594 277.345 151.292 276.681 150.99 276.077C150.688 275.473 150.446 274.869 150.205 274.265C149.963 273.661 149.782 272.997 149.6 272.393C149.419 271.79 149.298 271.125 149.117 270.521C144.102 268.468 139.873 264.362 137.758 259.29C137.093 260.317 136.429 261.464 135.885 262.672C135.402 263.879 134.918 265.147 134.495 266.536C133.106 266.355 131.716 266.113 130.266 265.751C128.876 265.328 127.487 264.845 126.037 264.242C129.42 272.393 136.127 278.975 144.283 282.296C145.009 281.995 145.734 281.693 146.398 281.391C147.063 281.089 147.727 280.787 148.392 280.364C149.057 280.002 149.661 279.579 150.265 279.217C150.869 278.734 151.413 278.371 151.957 277.888ZM157.213 284.772H157.032H156.79H156.307L155.34 284.712C154.736 284.651 154.072 284.651 153.467 284.591L151.594 284.289C150.99 284.168 150.325 284.108 149.721 283.927C150.386 283.564 151.051 283.081 151.655 282.659C152.259 282.236 152.863 281.753 153.407 281.33C153.951 280.908 154.494 280.364 155.038 279.881C155.582 279.398 156.065 278.855 156.488 278.371C156.065 277.828 155.642 277.285 155.22 276.741C154.857 276.198 154.434 275.654 154.132 275.05C153.769 274.446 153.467 273.903 153.226 273.299C152.924 272.695 152.682 272.152 152.44 271.548C152.803 271.669 153.226 271.669 153.588 271.729L154.736 271.91L157.153 272.031L162.591 278.371L157.213 284.772ZM189.478 278.371L184.04 272.031H162.712L168.149 278.371L162.712 284.712H184.04L189.478 278.371ZM194.372 284.772C194.009 284.712 193.586 284.772 193.224 284.712H191.713H188.632C190.445 282.598 192.257 280.485 194.07 278.371C192.257 276.198 190.445 274.145 188.632 271.971H191.713H193.284C193.949 271.971 194.553 271.971 195.218 272.031C197.332 274.265 199.024 276.741 200.233 279.217C197.816 280.908 195.882 282.78 194.372 284.772ZM221.138 295.279L221.803 286.946L218.057 283.202L217.09 282.236L216.606 281.753L216.002 281.21C215.579 280.847 215.217 280.485 214.794 280.123C214.371 279.76 213.948 279.398 213.525 279.096C210.081 276.379 206.033 274.386 201.804 273.239C203.435 275.896 204.583 278.613 205.247 281.33C202.649 282.417 200.414 283.866 198.541 285.497C201.139 286.221 203.616 287.429 205.791 289.12C206.033 289.301 206.335 289.543 206.577 289.784C206.818 290.026 207.121 290.207 207.302 290.448L207.664 290.811L208.148 291.294L209.114 292.26L212.86 296.004L221.138 295.279ZM220.353 303.491L216.002 299.144L224.34 298.479L225.005 290.146L229.355 294.494L228.691 302.827L220.353 303.491ZM247.662 321.788L248.327 313.455L233.222 298.359L232.557 306.692L224.219 307.356L239.324 322.452L247.662 321.788ZM246.937 330L242.587 325.652L250.925 324.988L251.59 316.655L255.94 321.003L255.275 329.336L246.937 330Z" fill="white"/>
</svg>
